Coordinates
version=1
nRows=8
nColumns=63
inDegrees=yes

Units are S.I. units (second, meters, Newtons, ...)
If the header above contains a line with 'inDegrees', this indicates whether rotational values are in degrees (yes) or radians (no).

endheader
time	pelvis_tilt	pelvis_list	pelvis_rotation	pelvis_tx	pelvis_ty	pelvis_tz	hip_flexion_r	hip_adduction_r	hip_rotation_r	knee_angle_r	knee_angle_r_beta	ankle_angle_r	subtalar_angle_r	mtp_angle_r	hip_flexion_l	hip_adduction_l	hip_rotation_l	knee_angle_l	knee_angle_l_beta	ankle_angle_l	subtalar_angle_l	mtp_angle_l	L5_S1_Flex_Ext	L5_S1_Lat_Bending	L5_S1_axial_rotation	L4_L5_Flex_Ext	L4_L5_Lat_Bending	L4_L5_axial_rotation	L3_L4_Flex_Ext	L3_L4_Lat_Bending	L3_L4_axial_rotation	L2_L3_Flex_Ext	L2_L3_Lat_Bending	L2_L3_axial_rotation	L1_L2_Flex_Ext	L1_L2_Lat_Bending	L1_L2_axial_rotation	L1_T12_Flex_Ext	L1_T12_Lat_Bending	L1_T12_axial_rotation	Abs_r3	Abs_r2	Abs_r1	Abs_t1	Abs_t2	neck_flexion	neck_bending	neck_rotation	arm_flex_r	arm_add_r	arm_rot_r	elbow_flex_r	pro_sup_r	wrist_flex_r	wrist_dev_r	arm_flex_l	arm_add_l	arm_rot_l	elbow_flex_l	pro_sup_l	wrist_flex_l	wrist_dev_l
      4.23333333	      1.22866595	     -3.72492667	     80.65217100	     -0.07584340	      0.77383525	      0.68410262	      4.55470741	      0.59360793	      3.71152967	      6.42474976	      0.11213304	     19.81320349	      5.85886798	      0.00000000	      0.63119064	     -1.17995656	     -8.84207581	      0.85336566	      0.01489404	     21.15728271	     -0.20841434	      0.00000000	     -0.02980660	     -0.25170796	      0.04578985	     -0.05535384	     -0.33477159	      0.04865172	     -0.04896927	     -0.61200274	      0.04865172	     -0.03406597	     -0.61200274	      0.04006612	     -0.02767841	     -0.51328288	      0.03720426	     -0.01703149	     -0.38989563	      0.03434239	     -0.21290559	     -2.84737082	      0.25466942	      0.00000000	      0.00000000	     25.96759882	      6.67421834	      5.19676981	      2.76180202	    -10.22410065	     35.32031295	     39.56909082	     85.40834195	    -10.28017112	     -1.86232261	     13.83027279	     -9.54165758	    144.78608600	     13.23192055	     10.88175390	     -0.85751084	     -1.05557930
      4.25000000	      1.65422123	     -3.90337788	     81.09440051	     -0.07742095	      0.77287908	      0.68358382	      4.69487124	      0.88906717	      2.03027585	      6.59660497	      0.11513248	     20.24696410	      7.60204440	      0.00000000	      0.68744562	     -1.51701983	     -4.90899140	      0.78591216	      0.01371675	     20.55535305	     -5.19566083	      0.00000000	     -0.03176123	     -0.15946788	      0.18935027	     -0.05898377	     -0.21209228	      0.20118467	     -0.05218052	     -0.38773021	      0.20118467	     -0.03629991	     -0.38773021	      0.16568149	     -0.02949348	     -0.32518690	      0.15384710	     -0.01814836	     -0.24701575	      0.14201270	     -0.22686727	     -1.80393257	      1.05310941	      0.00000000	      0.00000000	     26.53545635	      5.22583370	      4.57503231	      2.57974442	    -10.47638734	     34.52846834	     36.11791540	     83.09732649	     -9.29112524	     -1.91102120	     14.13085322	     -7.81334196	    154.13863791	     12.61193348	      8.40207100	     -1.05046908	     -2.35095758
      4.26666667	      2.03080701	     -3.92809042	     81.47035916	     -0.07853971	      0.77236919	      0.68313190	      4.64181644	      1.22276213	      1.68353434	      6.67157959	      0.11644103	     20.33433502	      7.43527127	      0.00000000	      0.64044409	     -1.85107037	     -4.81681829	      0.84403472	      0.01473118	     20.65926186	     -4.93583608	      0.00000000	     -0.04179213	     -0.07953792	      0.28637071	     -0.07761217	     -0.10578543	      0.30426887	     -0.06866030	     -0.19338849	      0.30426887	     -0.04776423	     -0.19338849	      0.25057437	     -0.03880818	     -0.16219372	      0.23267620	     -0.02388003	     -0.12320423	      0.21477803	     -0.29851703	     -0.89974882	      1.59270795	      0.00000000	      0.00000000	     26.83568931	      4.01720148	      4.39469225	      2.35833518	    -10.78001528	     33.44987665	     33.73075878	     81.96238687	     -8.53338556	     -1.07763266	     14.16236358	     -7.02534936	    155.13430250	     12.61225331	      8.84811348	     -2.10590464	     -2.64340739
      4.28333333	      2.34968663	     -3.93213531	     81.92030954	     -0.07947581	      0.77195063	      0.68267450	      4.53652707	      1.49259845	      1.24760939	      6.65480673	      0.11614829	     20.38113170	      7.43395799	      0.00000000	      0.61343274	     -2.13920528	     -4.88582721	      0.93067273	      0.01624330	     20.71483756	     -4.31539270	      0.00000000	     -0.03744575	     -0.01847254	      0.38204774	     -0.06954051	     -0.02456848	      0.40592573	     -0.06151963	     -0.04491414	      0.40592573	     -0.04279675	     -0.04491414	      0.33429178	     -0.03477213	     -0.03766921	      0.31041379	     -0.02139650	     -0.02861397	      0.28653581	     -0.26747126	     -0.20896509	      2.12483493	      0.00000000	      0.00000000	     27.07813837	      2.84706320	      3.50121141	      1.89993018	    -11.24622241	     32.44423114	     32.28604109	     81.20183122	     -8.08711920	     -0.07341080	     14.37690265	     -6.39784900	    156.34141469	     12.52369938	      9.00120711	     -2.86243380	     -2.98360417
      4.30000000	      2.46159734	     -3.88751150	     82.23028402	     -0.07997512	      0.77157588	      0.68229578	      4.43047213	      1.57571182	      1.04325568	      6.65119158	      0.11608519	     20.57841480	      7.29483894	      0.00000000	      0.54783988	     -2.21761760	     -4.82229258	      0.98044211	      0.01711194	     20.50165218	     -4.08889534	      0.00000000	     -0.03007769	      0.01476402	      0.45287641	     -0.05585728	      0.01963615	      0.48118118	     -0.04941464	      0.03589725	      0.48118118	     -0.03437579	      0.03589725	      0.39626686	     -0.02793014	      0.03010680	      0.36796208	     -0.01718639	      0.02286947	      0.33965731	     -0.21484194	      0.16701360	      2.51876271	      0.00000000	      0.00000000	     27.27891820	      2.53089943	      3.48124310	      1.52823537	    -11.73099803	     32.36000116	     31.15253914	     81.22417155	     -8.21655656	      0.37409489	     14.51680042	     -6.07996090	    156.27760483	     12.25068794	      8.88706732	     -3.06542086	     -3.16062739
      4.31666667	      2.65140249	     -3.81471155	     82.57231576	     -0.08037063	      0.77122353	      0.68186628	      4.27470400	      1.74877309	      0.85710925	      6.61677549	      0.11548452	     20.75138556	      7.17605051	      0.00000000	      0.44667696	     -2.38447942	     -4.75861531	      1.00044918	      0.01746113	     20.37219069	     -3.78826279	      0.00000000	     -0.02261902	      0.05340856	      0.49922230	     -0.04200579	      0.07103338	      0.53042369	     -0.03716080	      0.12985757	      0.53042369	     -0.02585128	      0.12985757	      0.43681951	     -0.02100403	      0.10891073	      0.40561812	     -0.01292451	      0.08272986	      0.37441672	     -0.16156543	      0.60416829	      2.77652466	      0.00000000	      0.00000000	     27.46584360	      2.06622757	      3.31616596	      1.09744687	    -12.20158788	     32.47702592	     30.21996947	     81.44917115	     -8.36050871	      0.84197138	     14.65312433	     -5.80780137	    156.15601765	     11.96087638	      8.70990645	     -3.42006344	     -3.42505463
      4.33333333	      3.08884789	     -3.65977535	     83.27274433	     -0.08126259	      0.77100767	      0.68115029	      3.87016157	      2.13734580	      0.49239138	      6.35967966	      0.11099735	     20.64257491	      6.99740073	      0.00000000	      0.28054947	     -2.81089641	     -4.94718067	      1.04728181	      0.01827852	     20.65360449	     -2.58537284	      0.00000000	     -0.02469069	      0.11682769	      0.43937258	     -0.04585308	      0.15538083	      0.46683337	     -0.04056433	      0.28405486	      0.46683337	     -0.02821899	      0.28405486	      0.38445101	     -0.02292777	      0.23823503	      0.35699022	     -0.01410826	      0.18096610	      0.32952944	     -0.17636312	      1.32157824	      2.44365850	      0.00000000	      0.00000000	     27.62025787	      0.81023916	      2.31059317	      0.80513956	    -12.93555069	     33.66562681	     29.62145112	     83.14125724	     -8.88636932	      1.71314267	     14.74405089	     -5.58234346	    156.05305609	     12.02580318	      8.13544556	     -4.79239682	     -4.04038594
      4.35000000	      3.10885940	     -3.56214035	     83.52489834	     -0.08125198	      0.77074643	      0.68057088	      3.70333843	      2.15273879	      0.39401674	      6.31719928	      0.11025593	     20.90355122	      6.88049460	      0.00000000	      0.17772898	     -2.82250861	     -4.85060025	      1.07984499	      0.01884685	     20.56527187	     -2.35585186	      0.00000000	     -0.01057228	      0.12910960	      0.50083180	     -0.01963378	      0.17171577	      0.53213378	     -0.01736920	      0.31391708	      0.53213378	     -0.01208306	      0.31391708	      0.43822782	     -0.00981742	      0.26328029	      0.40692583	     -0.00604100	      0.19999077	      0.37562385	     -0.07551673	      1.46051360	      2.78547620	      0.00000000	      0.00000000	     27.70398142	      0.76472970	      2.37062873	      0.27804586	    -13.21302367	     33.98919579	     28.82430417	     83.40751177	     -8.89976599	      1.98633761	     14.92169508	     -5.48347885	    156.04344615	     11.98313888	      8.10487844	     -4.93435765	     -4.11445454
